<svg class="canvas" viewBox="0 0 1920 1080" preserveAspectRatio="xMaxYMid slice" xmlns="http://www.w3.org/2000/svg"
        version="1.1" xmlns:xlink="http://www.w3.org/1999/xlink" xmlns:svgjs="http://svgjs.dev/svgjs">
        <rect width="1920" height="1080" fill="hsl(211, 65%, 15%)"></rect>
        <defs>
            <linearGradient x1="0.5" y1="0" x2="0" y2="1" id="SvgjsLinearGradient1000">
                <stop stop-color="#286b8a" offset="0"></stop>
                <stop stop-color="#0a0614" offset="0.1"></stop>
            </linearGradient>
            <linearGradient x1="0.5" y1="0" x2="0" y2="1" id="SvgjsLinearGradient1001">
                <stop stop-color="#286b8a" offset="0"></stop>
                <stop stop-color="#0a0614" offset="0.22857142857142856"></stop>
            </linearGradient>
            <linearGradient x1="0.5" y1="0" x2="0" y2="1" id="SvgjsLinearGradient1002">
                <stop stop-color="#28448a" offset="0"></stop>
                <stop stop-color="#100614" offset="0.3571428571428571"></stop>
            </linearGradient>
            <linearGradient x1="0.5" y1="0" x2="0" y2="1" id="SvgjsLinearGradient1003">
                <stop stop-color="#c0ecf2" offset="0"></stop>
                <stop stop-color="#5342d7" offset="0.48571428571428565"></stop>
            </linearGradient>
            <linearGradient x1="0.5" y1="0" x2="0" y2="1" id="SvgjsLinearGradient1004">
                <stop stop-color="#c0cef2" offset="0"></stop>
                <stop stop-color="#ad42d7" offset="0.6142857142857142"></stop>
            </linearGradient>
            <linearGradient x1="0.5" y1="0" x2="0" y2="1" id="SvgjsLinearGradient1005">
                <stop stop-color="#c0e2f2" offset="0"></stop>
                <stop stop-color="#7142d7" offset="0.7428571428571429"></stop>
            </linearGradient>
            <linearGradient x1="0.5" y1="0" x2="0" y2="1" id="SvgjsLinearGradient1006">
                <stop stop-color="#c0d8f2" offset="0"></stop>
                <stop stop-color="#8f42d7" offset="0.8714285714285713"></stop>
            </linearGradient>
        </defs>
        <path
            d="M0,-497.3786443508536C43.35489590259018,-487.01390546940956,162.97573249923715,-455.2261399513431,260.12937541554106,-435.1902110621894C357.28301833184497,-415.1542821730357,492.4638985876662,-409.94303342414815,582.9218574978233,-377.16307101593145C673.3798164079805,-344.38310860771475,720.1036100032668,-269.0556159029829,802.8771288764838,-238.51043661288918C885.6506477497007,-207.96525732279548,985.5432819355202,-218.63052458884653,1079.5629707371252,-193.8919952753693C1173.5826595387302,-169.1534659618921,1276.579766392012,-116.4559668520802,1366.9952616861135,-90.07926073202594C1457.410756980215,-63.70255461197169,1529.8884861160855,-57.74852795190584,1622.0559425017332,-35.631758555043795C1714.2233988873809,-13.514989158181745,1870.3426570836223,29.57916994844799,1920,42.62135564914635L 1920 1080 L 0 1080 Z"
            fill="url(&quot;#SvgjsLinearGradient1000&quot;)"></path>
        <path
            d="M0,-375.8747639469716C53.74781458881264,-353.40045493500907,211.84063539663106,-276.2981936393048,322.4868875328758,-241.02890987519626C433.13313966912057,-205.7596261110877,557.9630419180103,-193.92389459012162,663.8775128174685,-164.25906136232024C769.7919837169268,-134.59422813451886,859.3899723610623,-87.1479406028841,957.9737129296253,-63.03991050838801C1056.5574534981884,-38.93188041389192,1146.2032138168536,-38.52355714012835,1255.3799562288466,-19.610880795343682C1364.5566986408396,-0.6982044505590217,1502.2641601063908,17.43250903797223,1613.034167401583,50.43614756031997C1723.8041746967754,83.4397860826677,1868.8390279002638,157.0818165423389,1920,178.4109503387427L 1920 1080 L 0 1080 Z"
            fill="url(&quot;#SvgjsLinearGradient1001&quot;)"></path>
        <path
            d="M0,-325.65964748170086C83.21416445910681,-308.59872393521084,337.62014483898895,-267.9767104799139,499.2849867546409,-223.29410620276062C660.9498286702928,-178.6115019256073,807.0742365037861,-108.51991222714464,969.9890514939117,-57.56402181878109C1132.9038664840373,-6.608131410417542,1318.4387186110466,32.361935762669226,1476.7738766953946,82.4412362474207C1635.1090347797426,132.5205367321722,1846.1289794492325,216.1666902826766,1920,242.91178108972778L 1920 1080 L 0 1080 Z"
            fill="url(&quot;#SvgjsLinearGradient1002&quot;)"></path>
        <path
            d="M0,-105.85587539778085C69.69921783849858,-86.08591999877183,248.82811031074684,-25.792492979165488,418.1953070309915,12.763856996273283C587.5625037512361,51.320206971712054,838.6443318278381,72.22931012617485,1016.203180321468,125.48222445485177C1193.762028815098,178.7351387835287,1332.9155947130157,273.6948358009164,1483.548397992771,332.2813429683348C1634.1812012725263,390.8678501357532,1847.2580663321285,452.8812800441908,1920,477.00126745936205L 1920 1080 L 0 1080 Z"
            fill="url(&quot;#SvgjsLinearGradient1003&quot;)"></path>
        <path
            d="M0,-37.94564485580101C69.50618712474592,-23.251623335966478,288.8802513925614,11.518923918785262,417.03712274847555,50.21848426320618C545.1939941043897,88.9180446076271,639.2851816092951,147.23788966602228,768.9412281354848,194.2517172107245C898.5972746616745,241.26554475542673,1063.6819035971616,287.56179208707476,1194.9734019056136,332.3014495314195C1326.2649002140656,377.04110697576425,1435.8524516371328,424.8737014175202,1556.6902179861972,462.68966187679297C1677.5279843352616,500.50562233606576,1859.4483696643663,543.1126205520123,1920,559.1972122870562L 1920 1080 L 0 1080 Z"
            fill="url(&quot;#SvgjsLinearGradient1004&quot;)"></path>
        <path
            d="M0,91.54029442480106C49.57783861206846,111.04480867088402,207.39210453041125,171.5758028544908,297.46703167241077,208.56737990129884C387.5419588144103,245.55895694810687,457.3940772969146,288.91391257890564,540.4495628519971,313.4897567056493C623.5050484070797,338.065600832393,701.1349426133605,340.63521020839005,795.799945002906,356.0224446617608C890.4649473924516,371.40967911513155,1005.4077813652415,368.58580932330824,1108.43957718927,405.81316342587377C1211.4713730132985,443.0405175284393,1321.1632805293812,551.9882340098064,1413.9907199470774,579.386569277154C1506.8181593647737,606.7849045445015,1581.069333686628,549.6061256005892,1665.4042136954483,570.203175029959C1749.7390937042687,590.8002244593288,1877.5673689492414,680.841250716137,1920,702.9688658533726L 1920 1080 L 0 1080 Z"
            fill="url(&quot;#SvgjsLinearGradient1005&quot;)"></path>
        <path
            d="M0,258.0981629031061C34.230589481715334,276.56896215176164,125.53845814368769,341.2473027951282,205.383536890292,368.92295839503936C285.2286156368963,396.59861399495054,392.38256314290993,406.6449429669107,479.07047247962583,424.1520965025732C565.7583818163417,441.6592500382357,648.846280800049,449.80078730072887,725.5109929105874,473.96587960901434C802.1757050211259,498.1309719172998,864.6897129137237,537.0817041191043,939.0587451428564,569.1426503522858C1013.4277773719891,601.2035965854674,1086.4780679718915,636.9260057300465,1171.7251862853839,666.3315570081033C1256.9723045988762,695.7371082861602,1361.560908718307,723.3103923563517,1450.5414550238113,745.5759580206268C1539.5220013293156,767.8415236849019,1627.3653732890455,776.885535894293,1705.6084641184102,799.9249509937538C1783.851554947775,822.9643660932146,1884.2680773530683,869.8311990134522,1920,883.8124486173919L 1920 1080 L 0 1080 Z"
            fill="url(&quot;#SvgjsLinearGradient1006&quot;)"></path>
    </svg>